<?xml version="1.0" encoding="UTF-8"?>
<svg xmlns="http://www.w3.org/2000/svg" xmlns:xlink="http://www.w3.org/1999/xlink" width="20pt" height="20pt" viewBox="0 0 20 20" version="1.1">
<g id="surface1">
<path style=" stroke:none;fill-rule:nonzero;fill:rgb(8.627451%,55.294118%,88.627451%);fill-opacity:1;" d="M 17.535156 18.449219 L 17.339844 18.449219 C 16.953125 18.449219 16.585938 18.292969 16.3125 18.019531 L 16.089844 17.820312 L 16.457031 17.21875 L 16.777344 17.554688 C 16.925781 17.703125 17.128906 17.789062 17.339844 17.789062 L 17.535156 17.789062 C 17.71875 17.789062 17.863281 17.636719 17.863281 17.457031 C 17.863281 17.273438 17.71875 17.128906 17.535156 17.128906 L 17.535156 16.464844 C 18.082031 16.464844 18.523438 16.910156 18.523438 17.457031 C 18.523438 18.003906 18.082031 18.449219 17.535156 18.449219 Z M 17.535156 18.449219 "/>
<path style=" stroke:none;fill-rule:nonzero;fill:rgb(100%,79.607843%,35.294118%);fill-opacity:1;" d="M 8.953125 0.296875 L 9.734375 3.808594 C 10.523438 7.34375 10.367188 11.027344 9.285156 14.488281 L 15.554688 13.828125 C 16.917969 8.960938 14.84375 3.785156 10.496094 1.210938 Z M 8.953125 0.296875 "/>
<path style=" stroke:none;fill-rule:nonzero;fill:rgb(5.098039%,43.921569%,69.411765%);fill-opacity:1;" d="M 17.234375 15.804688 L 15.886719 18.777344 L 15.429688 18.53125 C 14.167969 17.839844 12.691406 17.667969 11.304688 18.042969 L 10.488281 18.265625 C 9.523438 18.527344 8.507812 18.535156 7.542969 18.28125 L 7.496094 18.269531 C 6.285156 17.953125 5.003906 18.035156 3.847656 18.507812 L 3.789062 18.527344 C 2.855469 18.910156 1.835938 19.035156 0.835938 18.890625 L 0.691406 18.871094 L 0.707031 18.777344 L 0.375 17.128906 L 17.535156 15.148438 Z M 17.234375 15.804688 "/>
<path style=" stroke:none;fill-rule:nonzero;fill:rgb(96.862745%,58.823529%,26.666667%);fill-opacity:1;" d="M 7.964844 2.605469 L 8.324219 3.859375 C 9.367188 7.511719 9.003906 11.421875 7.304688 14.816406 L 3.675781 15.148438 L 4.378906 13.914062 C 5.664062 11.667969 6.582031 9.238281 7.109375 6.710938 Z M 7.964844 2.605469 "/>
<path style=" stroke:none;fill-rule:nonzero;fill:rgb(8.627451%,55.294118%,88.627451%);fill-opacity:1;" d="M 17.472656 19.554688 C 16.910156 19.554688 16.355469 19.410156 15.863281 19.140625 L 15.273438 18.816406 C 14.085938 18.167969 12.695312 18.003906 11.390625 18.359375 L 10.574219 18.585938 C 9.554688 18.859375 8.480469 18.867188 7.457031 18.597656 L 7.414062 18.585938 C 6.273438 18.285156 5.0625 18.363281 3.972656 18.808594 L 3.917969 18.832031 C 2.929688 19.234375 1.847656 19.367188 0.792969 19.214844 L 0 19.101562 L 0.09375 18.449219 L 0.886719 18.5625 C 1.828125 18.695312 2.789062 18.578125 3.667969 18.21875 L 3.722656 18.199219 C 4.949219 17.699219 6.300781 17.609375 7.582031 17.949219 L 7.625 17.960938 C 8.535156 18.199219 9.496094 18.195312 10.402344 17.945312 L 11.21875 17.726562 C 12.6875 17.324219 14.253906 17.507812 15.585938 18.238281 L 16.179688 18.5625 C 16.792969 18.898438 17.511719 18.984375 18.1875 18.796875 C 18.84375 18.621094 19.269531 17.984375 19.179688 17.3125 C 19.089844 16.636719 18.511719 16.132812 17.832031 16.136719 L 17.085938 16.136719 L 17.371094 15.476562 L 17.832031 15.476562 C 18.84375 15.476562 19.699219 16.222656 19.832031 17.222656 C 19.964844 18.226562 19.335938 19.171875 18.359375 19.433594 C 18.070312 19.511719 17.773438 19.554688 17.472656 19.554688 Z M 17.472656 19.554688 "/>
</g>
</svg>
